<svg width="25" height="25" viewBox="0 0 25 25" fill="none" xmlns="http://www.w3.org/2000/svg">
<path d="M12.5013 12.4999C15.3778 12.4999 17.7096 10.1681 17.7096 7.29158C17.7096 4.4151 15.3778 2.08325 12.5013 2.08325C9.62482 2.08325 7.29297 4.4151 7.29297 7.29158C7.29297 10.1681 9.62482 12.4999 12.5013 12.4999Z" stroke="black" stroke-width="2"/>
<path d="M17.709 14.5833H18.0757C18.8373 14.5835 19.5725 14.8618 20.1433 15.3658C20.7142 15.8699 21.0813 16.5651 21.1757 17.3208L21.583 20.5749C21.6196 20.8681 21.5935 21.1657 21.5063 21.448C21.4192 21.7302 21.273 21.9908 21.0774 22.2122C20.8819 22.4337 20.6414 22.611 20.3721 22.7324C20.1028 22.8539 19.8107 22.9167 19.5153 22.9166H5.48613C5.1907 22.9167 4.89863 22.8539 4.6293 22.7324C4.35998 22.611 4.11957 22.4337 3.92402 22.2122C3.72847 21.9908 3.58226 21.7302 3.49509 21.448C3.40792 21.1657 3.38179 20.8681 3.41842 20.5749L3.82467 17.3208C3.91915 16.5647 4.28656 15.8693 4.85783 15.3651C5.4291 14.861 6.16486 14.583 6.92676 14.5833H7.29238" stroke="black" stroke-width="2" stroke-linecap="round" stroke-linejoin="round"/>
</svg>
